<svg width="51" height="51" viewBox="0 0 51 51" fill="none" xmlns="http://www.w3.org/2000/svg">
<path d="M1.59375 13.547L25.5 25.5001L49.4062 13.547V39.047L25.5 50.9999L1.59375 39.0468V13.547Z" fill="#EB352F"/>
<path d="M1.59375 15.9374V23.3881L25.4203 35.0623L49.4061 23.3483V15.9374L25.5 27.6515L1.59375 15.9374Z" fill="#A8070F"/>
<path d="M25.5 50.9999V25.5001L3.18751 14.3439H1.59375V39.047L25.5 50.9999Z" fill="#C7161F"/>
<path d="M1.59375 15.9374V23.3881L25.4203 35.0623L25.5 35.0225V27.6116V27.6514L1.59375 15.9374Z" fill="#B01821"/>
<path d="M0 12.7111L25.5 0.000976562L51 12.7111V14.3846L25.5 27.0945L0 14.4244V12.7111Z" fill="#EB352F"/>
<path d="M40.1226 4.02425C39.2858 2.51021 37.4929 1.59375 35.3811 1.59375C30.5601 1.59375 27.1734 6.09612 25.4999 8.96488C23.8264 6.09612 20.3999 1.63361 15.6186 1.63361C12.5507 1.63361 10.3593 3.50629 10.3593 6.05627C10.3593 10.5984 15.3397 13.5469 25.3405 13.5469C35.3412 13.5469 40.6404 9.76176 40.6404 6.09612C40.6405 5.37896 40.4812 4.6618 40.1226 4.02425ZM16.6547 8.92512C15.539 8.1681 15.1406 7.33136 15.1406 6.77353C15.1406 6.09623 15.7782 5.57826 16.6945 5.57826C18.8461 5.57826 20.5594 8.40715 21.5156 10.3595C19.0055 10.1603 17.5312 9.48285 16.6547 8.92512ZM34.3452 8.92512C33.4686 9.48295 31.9944 10.1603 29.4843 10.3594C30.4007 8.40715 32.114 5.57816 34.3053 5.57816C35.2217 5.57816 35.8593 6.09613 35.8593 6.77343C35.8594 7.33136 35.4609 8.168 34.3452 8.92512Z" fill="#EFEFEF"/>
<path d="M0 12.7501L25.5 25.2212L51 12.7501V20.9978L25.4203 33.4689L0 20.9978V12.7501Z" fill="#C7161F"/>
<path d="M35.0625 21.6351V20.7188L25.5 15.5391L15.9376 20.7188V21.6351L9.56262 18.8461V17.5711L25.1813 9.32349L25.5 9.48282L25.8188 9.32349L41.4375 17.5313V18.8063L35.0625 21.6351Z" fill="#EFEFEF"/>
<path d="M35.0625 20.7188V46.1789L41.4375 42.9914V17.5312L35.0625 20.7188Z" fill="#DCDCDC"/>
<path d="M9.5625 43.0312L15.9375 46.2187V20.7586L9.5625 17.5313C9.5625 17.5311 9.5625 43.0312 9.5625 43.0312Z" fill="#D1D1D1"/>
</svg>
