<?xml version="1.0" encoding="UTF-8" standalone="no"?>
<svg
   xmlns:dc="http://purl.org/dc/elements/1.1/"
   xmlns:cc="http://creativecommons.org/ns#"
   xmlns:rdf="http://www.w3.org/1999/02/22-rdf-syntax-ns#"
   xmlns:svg="http://www.w3.org/2000/svg"
   xmlns="http://www.w3.org/2000/svg"
   xmlns:sodipodi="http://sodipodi.sourceforge.net/DTD/sodipodi-0.dtd"
   xmlns:inkscape="http://www.inkscape.org/namespaces/inkscape"
   width="65"
   height="42"
   viewBox="0 0 65 42"
   fill="none"
   version="1.1"
   id="svg12"
   sodipodi:docname="siart_logo.svg"
   inkscape:version="1.0.2 (e86c870879, 2021-01-15, custom)">
  <metadata
     id="metadata18">
    <rdf:RDF>
      <cc:Work
         rdf:about="">
        <dc:format>image/svg+xml</dc:format>
        <dc:type
           rdf:resource="http://purl.org/dc/dcmitype/StillImage" />
      </cc:Work>
    </rdf:RDF>
  </metadata>
  <defs
     id="defs16" />
  <sodipodi:namedview
     pagecolor="#ffffff"
     bordercolor="#666666"
     borderopacity="1"
     objecttolerance="10"
     gridtolerance="10"
     guidetolerance="10"
     inkscape:pageopacity="0"
     inkscape:pageshadow="2"
     inkscape:window-width="1920"
     inkscape:window-height="1051"
     id="namedview14"
     showgrid="false"
     inkscape:zoom="20.952381"
     inkscape:cx="32.5"
     inkscape:cy="19.997727"
     inkscape:window-x="-9"
     inkscape:window-y="-9"
     inkscape:window-maximized="1"
     inkscape:current-layer="svg12" />
  <path
     id="path10"
     style="color:#000000;font-style:normal;font-variant:normal;font-weight:normal;font-stretch:normal;font-size:medium;line-height:normal;font-family:sans-serif;font-variant-ligatures:normal;font-variant-position:normal;font-variant-caps:normal;font-variant-numeric:normal;font-variant-alternates:normal;font-variant-east-asian:normal;font-feature-settings:normal;font-variation-settings:normal;text-indent:0;text-align:start;text-decoration:none;text-decoration-line:none;text-decoration-style:solid;text-decoration-color:#000000;letter-spacing:normal;word-spacing:normal;text-transform:none;writing-mode:lr-tb;direction:ltr;text-orientation:mixed;dominant-baseline:auto;baseline-shift:baseline;text-anchor:start;white-space:normal;shape-padding:0;shape-margin:0;inline-size:0;clip-rule:nonzero;display:inline;overflow:visible;visibility:visible;isolation:auto;mix-blend-mode:normal;color-interpolation:sRGB;color-interpolation-filters:linearRGB;solid-color:#000000;solid-opacity:1;vector-effect:none;fill:#888888;fill-opacity:1;fill-rule:nonzero;stroke-width:1;stroke-linecap:butt;stroke-linejoin:miter;stroke-miterlimit:4;stroke-dasharray:none;stroke-dashoffset:0;stroke-opacity:1;color-rendering:auto;image-rendering:auto;shape-rendering:auto;text-rendering:auto;enable-background:accumulate;stop-color:#000000;stop-opacity:1;stroke:none;opacity:1"
     d="m 50.7599,32.4209 h -0.087 c -0.3481,-0.0284 -0.6381,-0.1417 -0.8412,-0.3118 -0.203,-0.1984 -0.3771,-0.4534 -0.5511,-0.7935 -0.232,-0.5385 -0.3481,-1.0769 -0.3771,-1.6154 -0.029,-0.1984 -0.029,-0.4534 -0.029,-0.8502 -0.029,-0.1417 -0.029,-0.34 -0.029,-0.6518 0,-0.3117 0.029,-0.7935 0.087,-1.4453 0.1161,-1.0769 0.2321,-1.8705 0.3191,-2.4089 l 0.116,-1.162 c 0.1451,-0.9068 0.2611,-1.6437 0.4061,-2.2388 0.029,-0.3968 0.087,-0.8502 0.203,-1.332 0.1161,-0.4818 0.2031,-0.8502 0.2321,-1.0486 l 0.29,-1.6153 c 0.2901,-1.5587 0.5221,-2.6073 0.6672,-3.1741 l 0.174,-0.6802 0.8122,-2.834 0.087,-0.28335 0.319,-0.96356 h -0.203 C 51.6301,9.15379 51.05,9.26715 50.5569,9.40885 L 49.6577,9.60723 C 48.8455,9.83395 48.2364,10.004 47.8593,10.174 l -0.6961,0.2267 c -0.2611,0.0851 -0.4931,0.0567 -0.6961,-0.0566 -0.2031,-0.1134 -0.2901,-0.2834 -0.2901,-0.45347 0,-0.25506 0.203,-0.48178 0.5801,-0.65182 0.6671,-0.25506 1.1602,-0.45344 1.4793,-0.5668 0.3191,-0.11336 0.8992,-0.25506 1.6823,-0.45344 1.2473,-0.31173 2.2625,-0.53845 2.9876,-0.65181 l 0.116,-0.02834 c 0.0871,-0.17004 0.1451,-0.31174 0.1741,-0.45344 0.029,-0.1417 0.058,-0.22672 0.087,-0.31174 0.087,-0.22672 0.174,-0.53846 0.319,-0.90688 0.1161,-0.36842 0.2611,-0.76518 0.4351,-1.19027 0.2321,-0.65182 0.4061,-1.10526 0.5221,-1.38866 l 0.3191,-0.8502 c 0.2901,-0.65182 0.6961,-1.24695 1.1892,-1.813752 0.087,-0.08502 0.1741,-0.1417 0.2611,-0.226719 0.087,-0.05668 0.174,-0.1417 0.261,-0.22672 C 56.7641,0.0566798 56.9671,0 57.1991,0 c 0.4061,0 0.7252,0.0850197 0.9862,0.283399 0.2031,0.17004 0.3191,0.396759 0.3771,0.680158 0.058,0.481783 0.087,0.821853 0.087,1.048573 0,0.53846 -0.058,1.1336 -0.203,1.81376 -0.058,0.4251 -0.116,0.76518 -0.174,1.04857 l -0.4641,1.8421 c 0.4931,-0.05668 0.8701,-0.11336 1.1022,-0.17004 0.087,0 0.261,-0.02834 0.5221,-0.08502 1.1892,-0.17004 2.1174,-0.25506 2.7555,-0.2834 0.2611,-0.02834 0.6672,-0.02834 1.1893,-0.02834 0.29,0 0.5221,0.08502 0.6961,0.22672 0.174,0.1417 0.232,0.31174 0.232,0.51012 0,0.31174 -0.203,0.48178 -0.5801,0.51012 C 63.2323,7.4534 62.5362,7.51008 61.666,7.56676 L 60.1577,7.7368 57.3442,8.10521 56.8801,9.49387 c -0.058,0.08502 -0.116,0.19838 -0.174,0.36842 -0.1741,0.42511 -0.4351,1.07691 -0.8122,1.92711 -0.4931,0.9919 -0.9862,1.8704 -1.5083,2.6356 -0.2901,0.5668 -0.6671,1.1053 -1.0732,1.6154 -0.116,0.17 -0.203,0.3401 -0.2321,0.5668 -0.174,0.9635 -0.29,1.672 -0.406,2.1538 -0.058,0.1984 -0.1161,0.5101 -0.1741,0.9919 l -0.29,1.6721 c -0.2901,1.4736 -0.5511,2.8906 -0.7252,4.251 -0.058,0.255 -0.116,0.6801 -0.174,1.1902 l -0.174,1.4737 c -0.058,0.5385 -0.087,1.332 -0.087,2.3522 -0.0581,0.085 -0.0581,0.1417 0,0.1984 l 0.087,0.085 c 0.29,-0.2267 0.5511,-0.5101 0.7251,-0.8502 0.6091,-0.9352 1.1022,-1.8137 1.4793,-2.6072 0.5801,-1.3037 1.1022,-2.6357 1.5953,-3.9676 0.2321,-0.5952 0.5511,-1.502 0.9572,-2.7207 0.4351,-1.2186 0.7541,-2.2672 1.0152,-3.1174 0.087,-0.2267 0.203,-0.3684 0.3191,-0.4817 0.145,-0.1134 0.261,-0.1701 0.406,-0.1701 0.1741,0 0.2901,0.085 0.3771,0.2267 0.087,0.1417 0.116,0.3401 0.058,0.5668 l -0.4931,1.7288 c -0.4351,1.6154 -0.6961,2.5222 -0.7831,2.7206 -0.4931,1.3603 -1.1022,2.9757 -1.8564,4.8178 -0.232,0.4251 -0.4931,1.0769 -0.8121,1.9271 -0.4061,0.7368 -0.7832,1.3603 -1.1023,1.8421 -0.232,0.3401 -0.4641,0.6518 -0.7251,0.9069 -0.087,0.1133 -0.2901,0.255 -0.6091,0.4818 -0.1451,0.085 -0.2901,0.1133 -0.4641,0.1133 h -0.3481 c -0.058,0.0567 -0.116,0.0284 -0.116,0.0284 z m 3.7417,-20.6882 c 0.1741,-0.3117 0.3481,-0.6801 0.5801,-1.1336 0.0871,-0.17 0.1741,-0.3401 0.2321,-0.5668 0.087,-0.22669 0.174,-0.45341 0.232,-0.65179 0.058,-0.17004 0.1741,-0.48178 0.3771,-0.96356 l -0.6961,0.11336 c -0.1161,0.25506 -0.1741,0.45344 -0.2031,0.59514 l -0.5801,2.06885 -0.29,1.1336 c 0.087,-0.0851 0.174,-0.2834 0.348,-0.5952 z M 56.387,6.99996 c 0.261,-0.9919 0.4641,-1.78542 0.6091,-2.40889 0.145,-0.62348 0.2031,-1.10526 0.174,-1.47368 -0.058,0.02834 -0.116,0.11336 -0.174,0.22672 -0.145,0.36842 -0.4351,1.21862 -0.8992,2.55059 l -0.377,1.19028 z M 42.7835,34.5187 c -0.4061,-0.2834 -0.6671,-0.6518 -0.7832,-1.0769 -0.29,-0.9352 -0.4641,-1.8421 -0.4641,-2.749 0,-0.7368 0.0581,-1.4454 0.1741,-2.0688 0.058,-0.5385 0.203,-1.247 0.4061,-2.1256 0.29,-1.3603 0.6091,-2.5222 0.9281,-3.4575 0.2611,-0.8502 0.6382,-1.7287 1.0732,-2.6356 0.1161,-0.2267 0.2321,-0.4535 0.3191,-0.6235 0.116,-0.17 0.203,-0.3401 0.2901,-0.4534 0.029,-0.0567 0.058,-0.1134 0.116,-0.1701 0.029,-0.0567 0.087,-0.1417 0.145,-0.2267 l -0.174,-0.085 -2.3785,-0.8786 c -0.5221,-0.1984 -1.1022,-0.4251 -1.7693,-0.7085 -0.5221,-0.255 -0.9282,-0.5385 -1.2763,-0.7935 -1.0442,-0.7935 -1.5083,-1.8421 -1.4213,-3.1174 0.029,-0.3118 0.1161,-0.6802 0.2321,-1.0486 0.261,-0.6802 0.6091,-1.2753 1.0152,-1.7571 0.319,-0.3685 0.6961,-0.65186 1.0732,-0.85024 0.3191,-0.22672 0.7251,-0.31174 1.1602,-0.31174 0.3771,0 0.7542,0.08502 1.1022,0.25506 0.3481,0.17004 0.6382,0.36842 0.8122,0.62352 0.3481,0.4534 0.5511,0.9635 0.5801,1.5303 0.087,1.077 -0.058,2.1539 -0.4641,3.2308 -0.116,0.3401 -0.232,0.6802 -0.319,0.9636 -0.1161,0.2834 -0.2031,0.5668 -0.2901,0.7935 -0.029,0.0284 -0.029,0.0567 -0.029,0.1134 0,0.0283 0,0.085 -0.029,0.1134 l 0.29,0.17 2.5815,0.8785 c 0.3771,0.1701 0.6672,0.2551 0.8702,0.3118 0.2901,0.0567 0.5801,0.2834 0.8702,0.7085 0.058,0.1134 0.087,0.1984 0.087,0.2267 0,0.1134 -0.029,0.2267 -0.116,0.3684 -0.087,0.1984 -0.2031,0.3685 -0.3191,0.5668 -0.29,0.4535 -0.6091,1.0203 -0.9282,1.7288 -0.232,0.5101 -0.5221,1.3037 -0.8991,2.3522 l -0.4641,1.5588 c -0.1741,0.6518 -0.2611,1.1336 -0.3191,1.4453 -0.029,0.1417 -0.145,0.9069 -0.3771,2.3239 -0.058,0.3401 -0.087,0.8786 -0.087,1.5587 0,0.2267 0,0.3968 0.029,0.5102 h 0.029 c 0.058,-0.0567 0.087,-0.0851 0.087,-0.1134 l 0.3191,-1.1903 c 0.2611,-1.0769 0.6961,-2.2672 1.2763,-3.5992 0.5511,-1.332 0.9571,-2.3239 1.2762,-3.0041 0.058,-0.1417 0.116,-0.2834 0.232,-0.4818 0.0871,-0.1984 0.2031,-0.3967 0.3191,-0.6518 0.2321,-0.3684 0.3771,-0.6518 0.4641,-0.8502 0.2611,-0.5101 0.6961,-1.1903 1.2472,-2.0688 0.5512,-0.8786 1.0443,-1.5588 1.4213,-2.0972 l 0.1741,-0.1984 c 0.145,-0.17 0.29,-0.1984 0.464,-0.1134 0.0291,0 0.1161,0.0284 0.2901,0.0851 0.029,0.085 0.087,0.17 0.145,0.2834 0.058,0.1133 0.1161,0.2267 0.1451,0.3117 l -0.1161,0.1984 c -0.406,0.6235 -1.2182,1.9838 -2.4654,4.1377 -0.2321,0.4251 -0.4351,0.7935 -0.5802,1.1336 -0.145,0.3117 -0.29,0.5951 -0.377,0.7935 l -0.4931,1.1336 -0.7832,1.9271 c -0.5801,1.3887 -0.9862,2.6357 -1.2182,3.7693 -0.174,0.6235 -0.3481,1.417 -0.5221,2.4373 -0.087,0.3401 -0.2031,0.6801 -0.3771,0.9919 -0.232,0.3967 -0.5221,0.5668 -0.9282,0.4818 -0.6091,-0.1417 -0.9862,-0.2834 -1.2762,-0.5102 z M 42.2034,14.6806 c 0.232,-0.6802 0.348,-1.2754 0.406,-1.7571 0.0291,-0.1984 0.0291,-0.4535 0.0291,-0.7652 0,-0.3401 0,-0.5952 -0.0291,-0.7652 -0.058,-0.4535 -0.232,-0.8219 -0.493,-1.077 -0.4641,0.0851 -0.8122,0.2268 -1.0733,0.4818 l -0.5221,0.6802 c -0.5511,0.7368 -0.8411,1.502 -0.8701,2.2956 -0.058,0.9352 0.29,1.6437 1.0152,2.1538 0.058,0.0567 0.261,0.1984 0.6671,0.3968 l 0.203,0.085 c 0.2321,-0.4534 0.4641,-1.0202 0.6672,-1.7287 z m -6.5841,14.7081 c 0,0 -0.1451,-0.0567 -0.4351,-0.1984 -0.2901,-0.1417 -0.4931,-0.3401 -0.6382,-0.6518 -0.116,-0.2268 -0.203,-0.5102 -0.232,-0.7936 -0.145,-0.5951 -0.203,-1.1336 -0.203,-1.6437 -0.029,-0.4251 0,-1.1052 0.116,-2.0121 l 0.029,-0.3968 -0.2031,0.2267 c -0.232,0.3401 -0.5801,0.7085 -1.0151,1.1053 -0.4351,0.3968 -0.8412,0.6518 -1.2183,0.7935 -0.174,0.0567 -0.29,0.085 -0.4061,0.085 -0.232,0 -0.464,-0.0566 -0.6961,-0.1983 l -0.4931,-0.2268 c -0.4641,-0.2834 -0.6961,-0.7935 -0.6961,-1.5303 0,-0.5101 0.145,-1.3037 0.4641,-2.3523 0.232,-0.9635 0.5801,-1.8704 1.0152,-2.7206 0.261,-0.6518 0.4931,-1.1053 0.6961,-1.3887 0.232,-0.4534 0.4641,-0.8218 0.6961,-1.1336 0.4061,-0.5951 0.9282,-0.9635 1.5953,-1.1619 0.2321,-0.085 0.4931,-0.1134 0.7252,-0.1134 0.348,0 0.7251,0.1134 1.1022,0.3684 0.029,0.0284 0.232,0.1701 0.5801,0.4535 l 0.145,-0.1984 c 0.058,-0.17 0.1161,-0.2834 0.1741,-0.3684 0.116,-0.2551 0.319,-0.4535 0.6671,-0.5952 0.116,-0.0566 0.203,-0.0566 0.29,0 0.2321,0.0851 0.5512,0.2268 0.9862,0.4535 0.2031,0.1133 0.2611,0.255 0.2031,0.4818 0,0.085 0,0.1983 -0.029,0.34 -0.029,0.1418 -0.058,0.2551 -0.087,0.3401 -0.1741,0.7085 -0.4061,1.5304 -0.6962,2.494 -0.3771,1.2753 -0.6381,2.2672 -0.7831,2.919 -0.2321,0.8502 -0.3771,1.502 -0.4641,1.9271 -0.058,0.2834 -0.116,0.7369 -0.1741,1.332 l -0.232,2.2105 v 0.1134 c 0.029,0.0283 0.087,0 0.174,-0.085 0.0871,-0.1701 0.2031,-0.3401 0.3191,-0.5102 0.145,-0.1983 0.2611,-0.3967 0.4061,-0.6518 0.4351,-0.7935 0.8411,-1.6437 1.2182,-2.5222 l 0.6091,-1.332 1.0152,-2.2956 1.1022,-2.4089 c 0.058,-0.1417 0.1451,-0.2267 0.2611,-0.3117 0.116,-0.085 0.261,-0.1134 0.3771,-0.1134 0.174,0 0.29,0.0567 0.377,0.1701 0.0871,0.1133 0.1161,0.2834 0.058,0.4534 -0.174,0.3684 -0.261,0.6518 -0.319,0.8502 -1.2183,2.8623 -1.8274,4.251 -1.7984,4.1943 -0.6961,1.5304 -1.1022,2.4656 -1.2762,2.8057 -0.2901,0.7085 -0.7542,1.4737 -1.3633,2.3239 -0.6091,0.8502 -1.1022,1.332 -1.5083,1.3886 -0.29,0.0567 -0.435,0.0851 -0.435,0.0851 z m -3.4807,-5.328 0.7251,-0.6801 c 0.5221,-0.5102 1.0152,-1.1336 1.5083,-1.8705 0.3481,-0.5101 0.6091,-0.9352 0.7252,-1.332 0.145,-0.3684 0.29,-0.9068 0.464,-1.6153 0.0581,-0.2551 0.0871,-0.4535 0.0871,-0.5668 0,-0.3685 -0.1451,-0.8786 -0.4641,-1.5304 l -0.087,-0.0283 -0.1741,0.1133 c -0.319,0.3684 -0.6671,0.9352 -1.0152,1.6721 -0.087,0.17 -0.29,0.6235 -0.6671,1.3603 -0.2321,0.4818 -0.4641,1.0486 -0.6961,1.6721 -0.2611,0.9068 -0.4641,1.587 -0.5802,2.0405 -0.058,0.3967 -0.058,0.6801 -0.029,0.8502 z m -9.6884,1.729 c -0.348,-0.5951 -0.5511,-1.1902 -0.5801,-1.842 0,-0.5101 0.058,-0.9352 0.174,-1.2753 0.0291,-0.1134 0.0581,-0.2267 0.0871,-0.3968 0.029,-0.17 0.087,-0.34 0.174,-0.5668 0.058,-0.1983 0.116,-0.4251 0.203,-0.7085 0.0871,-0.2834 0.1741,-0.5384 0.2321,-0.7084 0.116,-0.3685 0.232,-0.7085 0.319,-1.0486 0.1161,-0.3118 0.2031,-0.5952 0.2901,-0.8502 0.174,-0.5951 0.4351,-1.247 0.8122,-1.9554 l 0.29,-0.5102 c 0.203,-0.3684 0.5801,-0.5668 1.1602,-0.5668 0.4351,0 0.7252,0.1134 0.8992,0.3685 0.058,0.1133 0.087,0.255 0.087,0.4817 0,0.2551 -0.087,0.6235 -0.232,1.0486 -0.1741,0.4251 -0.2611,0.7368 -0.3191,0.9069 -0.087,0.1984 -0.145,0.3684 -0.203,0.5101 -0.058,0.17 -0.116,0.2834 -0.1741,0.3967 -0.145,0.3685 -0.261,0.7936 -0.406,1.2753 l -0.2321,0.8502 -0.232,0.9919 c -0.087,0.2267 -0.2321,0.7368 -0.4061,1.4737 -0.087,0.34 -0.116,0.7368 -0.116,1.1619 0,0.2551 0,0.4534 0.029,0.5951 0,0.2268 0.058,0.3968 0.174,0.5101 0.116,0.0567 0.2611,0.0567 0.4931,0 0.4061,-0.1983 0.7542,-0.3967 1.0732,-0.5951 0.4931,-0.3401 1.1312,-0.9635 1.8854,-1.8704 0.4351,-0.5101 1.1022,-1.502 2.0304,-2.9757 0.9281,-1.4736 1.5082,-2.4372 1.7403,-2.8906 0.116,-0.3118 0.319,-0.4818 0.6671,-0.4818 0.2031,0 0.3481,0.0567 0.4931,0.1984 0.145,0.1417 0.174,0.3117 0.087,0.5101 -0.087,0.2834 -0.5511,1.1336 -1.3922,2.5506 -0.8412,1.3886 -1.4503,2.3522 -1.7984,2.8339 l -0.9862,1.1903 c -0.7251,0.9636 -1.5373,1.7004 -2.4074,2.2105 -0.6091,0.2834 -1.1312,0.4534 -1.5663,0.4534 -0.2031,0 -0.3191,0 -0.4061,-0.0283 -0.9282,-0.1417 -1.5663,-0.5385 -1.9434,-1.247 z m 3.7707,-13.0362 c -0.232,-0.17 -0.319,-0.3684 -0.319,-0.6518 0.029,-0.085 0.029,-0.1984 0.029,-0.3684 0.087,-0.3401 0.261,-0.5385 0.5221,-0.5668 0.261,-0.0284 0.5511,0 0.8121,0.1133 0.2611,0.085 0.4351,0.1984 0.5221,0.3401 0.0581,0.1134 0.0871,0.2551 0.0871,0.4534 0,0.2268 -0.0581,0.4535 -0.1741,0.6519 -0.116,0.1983 -0.29,0.3117 -0.5221,0.3117 C 26.772,12.9802 26.482,12.8952 26.2209,12.7535 Z M 4.14783,42.0002 c -0.46409,0 -0.81216,-0.0283 -1.07322,-0.085 C 2.4945,41.8019 1.85637,41.6035 1.16023,41.2634 L 0.667133,40.9233 C 0.232046,40.5833 0,40.0732 0,39.393 0,39.0529 0.0290058,38.6845 0.116023,38.3161 0.34807,37.5793 0.667133,36.8708 1.0152,36.2473 1.76935,34.802 2.69754,33.4417 3.79976,32.1664 4.72794,31.0328 5.45309,30.2109 5.91718,29.6725 l 0.92819,-0.9636 0.60912,-0.6518 c 0.43509,-0.4534 1.16023,-1.1052 2.11742,-1.9554 l 1.50829,-1.2753 c 0.087,-0.085 0.6381,-0.4818 1.6533,-1.2469 l 1.9144,-1.3603 1.0732,-0.7085 c 0.1161,-0.0567 0.2031,-0.1134 0.2321,-0.1701 -0.058,-0.085 -0.145,-0.1984 -0.2321,-0.3684 -0.116,-0.17 -0.232,-0.3117 -0.319,-0.3684 l -0.029,-0.1134 C 15.257,20.2921 15.112,20.0937 14.88,19.867 14.6479,19.6402 14.4739,19.4419 14.3579,19.3002 14.1258,19.0168 13.9228,18.7901 13.6907,18.62 l -0.203,-0.17 c -0.174,-0.1701 -0.3481,-0.3401 -0.5221,-0.5668 -0.203,-0.2267 -0.4061,-0.4251 -0.6671,-0.6518 L 11.0802,16.0694 10.065,14.9925 9.83296,14.7658 C 9.4849,14.4257 9.07881,13.944 8.64373,13.3205 8.29566,12.697 8.06361,12.1586 7.94759,11.6768 7.91858,11.5634 7.88958,11.4501 7.86057,11.28 7.83156,11.11 7.83156,10.94 7.83156,10.7132 7.88958,10.1748 7.97659,9.69302 8.06361,9.23959 8.15063,8.89951 8.35367,8.41774 8.67273,7.85094 L 9.33987,6.94407 C 9.68794,6.40562 10.094,5.92384 10.5581,5.49875 10.9062,5.15867 11.2833,4.8186 11.7183,4.50686 11.7473,4.47852 11.7764,4.45018 11.8344,4.3935 l 0.116,-0.11336 c 0.4351,-0.36841 1.0442,-0.79351 1.8564,-1.24694 0.29,-0.17004 0.5801,-0.31174 0.8411,-0.4251 0.2611,-0.11336 0.4931,-0.22671 0.6672,-0.31173 0.261,-0.17004 0.5511,-0.25506 0.8701,-0.2834 0.1741,-0.02834 0.4641,-0.08502 0.9282,-0.19838 0.3481,-0.11336 0.7832,-0.1417 1.2763,-0.08502 0.4351,0.05668 0.7541,0.11336 0.9862,0.17004 0.6671,0.1417 1.1892,0.36842 1.6533,0.68015 0.5221,0.39676 0.8122,0.93521 0.8702,1.61536 V 5.15867 C 21.7834,6.1789 21.4643,7.17079 20.9712,8.13434 L 20.4781,9.01287 C 20.246,9.3246 20.101,9.49464 20.072,9.52298 19.869,9.7497 19.6369,9.83472 19.3759,9.72136 h -0.2321 c -0.145,0 -0.261,-0.02834 -0.3771,-0.11336 -0.145,-0.1417 -0.174,-0.25506 -0.087,-0.39675 0.058,-0.11336 0.1161,-0.17004 0.1741,-0.19838 0.174,-0.22672 0.377,-0.62347 0.6671,-1.16193 C 19.84,7.11411 20.072,6.40562 20.188,5.78215 20.217,5.55543 20.217,5.15867 20.217,4.62022 20.188,4.2518 20.072,3.94007 19.84,3.65667 19.6079,3.34493 19.3179,3.1749 18.9698,3.1749 c -0.174,0 -0.4061,0.02834 -0.7252,0.08501 -0.5801,0.17004 -1.3052,0.45344 -2.2044,0.8502 L 14.793,4.70524 C 14.4159,4.9603 14.1258,5.18701 13.9228,5.35705 l -0.6091,0.51011 c -0.1451,0.11336 -0.2901,0.25506 -0.4931,0.48178 -0.2031,0.22672 -0.3771,0.39675 -0.5221,0.51011 l -0.1741,0.17004 -0.8121,1.13359 c -0.4351,0.59513 -0.7542,1.2186 -0.9862,1.92712 -0.0871,0.3117 -0.1161,0.6234 -0.1161,0.9068 0,0.4251 0.0871,0.8786 0.2321,1.332 l 0.116,0.17 c 0.087,0.1701 0.174,0.3118 0.2321,0.4251 0.087,0.1134 0.145,0.2268 0.203,0.3401 0.029,0.085 0.174,0.2551 0.4641,0.5101 l 0.29,0.3968 0.1451,0.1133 c 0.4351,0.3685 0.7541,0.6802 0.9282,0.8786 l 0.6091,0.5951 0.4061,0.3684 0.232,0.2267 1.0732,0.9919 c 0.3191,0.3118 0.5511,0.5668 0.6672,0.7085 0.203,0.2267 0.406,0.4535 0.6671,0.6518 0.261,0.2551 0.4351,0.4535 0.4931,0.5102 l 0.3191,0.3684 0.5221,0.6518 c 0.029,0 0.116,-0.0284 0.29,-0.1134 l 3.5967,-2.0404 1.2183,-0.7085 c 0.087,-0.0284 0.348,-0.1701 0.8121,-0.4535 0.1741,-0.085 0.3191,-0.1133 0.4931,-0.1133 0.3191,0 0.4931,0.1133 0.4931,0.3684 0,0.2267 -0.174,0.4251 -0.4931,0.5951 -0.319,0.1701 -0.6381,0.3401 -0.9281,0.5101 -0.2901,0.1701 -0.5512,0.3118 -0.7542,0.4251 l -2.0014,1.162 -2.0014,1.2186 0.6961,1.0769 c 0.2321,0.3684 0.4931,0.7935 0.7832,1.2469 0.232,0.3401 0.3481,0.5668 0.3771,0.6802 0.087,0.1417 0.261,0.5101 0.5221,1.1336 0.058,0.1133 0.087,0.1983 0.116,0.2834 0,0.085 0.029,0.1417 0.029,0.1983 0.116,0.2268 0.174,0.5385 0.203,0.8786 0.0291,0.34 0.0581,0.5951 0.0871,0.7651 0.029,0.0851 0.029,0.2268 0.029,0.4535 0,0.2267 0,0.4251 -0.029,0.5668 -0.058,1.3603 -0.3481,2.6072 -0.8992,3.7125 -0.174,0.3684 -0.4351,0.7935 -0.7832,1.2752 -0.203,0.3118 -0.377,0.5668 -0.5801,0.7652 l -0.4061,0.5668 c -0.116,0.1701 -0.261,0.3401 -0.4641,0.5668 -0.203,0.2267 -0.348,0.3968 -0.4641,0.5101 -0.348,0.3968 -0.7541,0.7652 -1.2182,1.0769 l -0.116,0.1134 c -0.2031,0.2267 -0.4351,0.4251 -0.7252,0.6518 -0.29,0.2267 -0.4931,0.3684 -0.6381,0.4818 -0.087,0.0566 -0.4061,0.255 -0.9282,0.5951 l -0.319,0.2267 c -0.0871,0.085 -0.1451,0.1134 -0.1741,0.1134 -0.232,0.1133 -0.4641,0.255 -0.6961,0.4534 -0.6671,0.3684 -1.0442,0.5668 -1.1602,0.5951 -0.1741,0.0567 -0.3191,0.1417 -0.4931,0.2268 -0.1741,0.1133 -0.3191,0.1983 -0.4931,0.2267 -0.1161,0.0567 -0.3481,0.17 -0.7252,0.3117 -0.37706,0.1701 -0.72513,0.2551 -1.0442,0.3118 l -0.31906,0.1133 c -0.20304,0.085 -0.46409,0.1701 -0.78316,0.2267 -0.31906,0.085 -0.58011,0.1417 -0.78315,0.1984 L 6.5263,41.7735 5.54011,41.8869 C 5.39508,41.9152 5.19204,41.9152 4.87297,41.9152 H 4.14783 Z m 0.14503,-1.2186 c 0.43508,-0.085 0.72514,-0.1417 0.81216,-0.17 0.26105,-0.0567 0.75415,-0.1984 1.42128,-0.3968 l 0.81217,-0.2267 c 0.60912,-0.255 1.07321,-0.4534 1.39227,-0.5668 0.20305,-0.085 0.4641,-0.2267 0.87018,-0.4534 l 0.37707,-0.1984 c 0.17401,-0.085 0.34811,-0.17 0.58011,-0.3117 0.2321,-0.1134 0.4641,-0.2551 0.6961,-0.4251 0.1451,-0.085 0.3191,-0.1984 0.5802,-0.3117 0.232,-0.1417 0.4351,-0.2551 0.5801,-0.3968 l 1.2762,-0.9069 0.9282,-0.7651 c 0.4931,-0.4251 1.0442,-0.9919 1.6534,-1.7288 0.203,-0.2267 0.464,-0.5384 0.7831,-0.9635 0.058,-0.085 0.2611,-0.3968 0.6091,-0.9069 0.2321,-0.3401 0.4641,-0.7935 0.6962,-1.3603 0.4061,-1.1052 0.5801,-2.1255 0.4931,-3.1173 0,-0.6802 -0.0871,-1.2187 -0.2321,-1.6437 l -0.087,-0.3118 c -0.029,-0.17 -0.087,-0.3401 -0.174,-0.5668 -0.087,-0.2267 -0.1741,-0.4251 -0.2321,-0.5668 -0.029,-0.0566 -0.058,-0.1133 -0.116,-0.1983 -0.058,-0.0851 -0.087,-0.1701 -0.087,-0.2268 0,-0.0566 -0.029,-0.1133 -0.116,-0.1983 -0.1161,-0.1417 -0.1741,-0.2551 -0.2321,-0.3685 -0.029,-0.1133 -0.087,-0.1983 -0.145,-0.2834 -0.2611,-0.4251 -0.4931,-0.7368 -0.6671,-0.9635 l -0.3191,0.17 -0.7832,0.5668 c -0.6961,0.3968 -1.6533,1.0769 -2.9005,2.0405 -0.9282,0.6801 -1.8564,1.417 -2.78461,2.2388 -0.69614,0.5952 -1.21824,1.0486 -1.56631,1.3603 L 7.30946,29.7858 6.72934,30.381 c -0.46409,0.5101 -0.89917,1.0202 -1.30526,1.5303 -0.72514,0.8502 -1.39227,1.7004 -1.91438,2.5223 -0.63813,0.9068 -1.07321,1.672 -1.36327,2.2955 -0.37708,0.7085 -0.63813,1.4453 -0.72515,2.2105 -0.05801,0.3117 -0.05801,0.5384 -0.029,0.6801 0,0.5101 0.23204,0.8785 0.72514,1.0769 0.34807,0.1417 0.66714,0.1984 0.95719,0.1984 0.37708,0 0.78316,-0.0283 1.21825,-0.1134 z" />
</svg>
