<svg width="19" height="19" viewBox="0 0 19 19" fill="none" xmlns="http://www.w3.org/2000/svg">
<circle cx="9.5" cy="9.5" r="9.5" fill="#7D3DAF"/>
<path d="M15.509 6.88464L15.5052 6.86963C15.2017 5.64266 13.8334 4.32605 12.5768 4.05214L12.5627 4.04922C10.5302 3.66149 8.46943 3.66149 6.43739 4.04922L6.4228 4.05214C5.16664 4.32605 3.79834 5.64266 3.49441 6.86963L3.49107 6.88464C3.11585 8.59815 3.11585 10.3358 3.49107 12.0494L3.49441 12.0644C3.78537 13.239 5.05178 14.4951 6.26146 14.8405V16.2102C6.26146 16.7059 6.86556 16.9494 7.2091 16.5917L8.59679 15.1492C8.89776 15.166 9.1989 15.1754 9.50003 15.1754C10.5231 15.1754 11.5467 15.0787 12.5627 14.8848L12.5768 14.8819C13.8334 14.608 15.2017 13.2914 15.5052 12.0644L15.509 12.0494C15.8842 10.3358 15.8842 8.59815 15.509 6.88464ZM14.4108 11.8009C14.2082 12.6013 13.1693 13.5965 12.3438 13.7804C11.2631 13.9859 10.1739 14.0737 9.08575 14.0436C9.06411 14.043 9.0433 14.0514 9.02821 14.0669C8.87379 14.2254 8.01499 15.107 8.01499 15.107L6.93727 16.2131C6.85847 16.2952 6.72006 16.2393 6.72006 16.1259V13.857C6.72006 13.8195 6.69329 13.7877 6.65648 13.7805C6.65627 13.7804 6.65606 13.7804 6.65586 13.7803C5.83037 13.5965 4.79184 12.6013 4.5888 11.8008C4.2511 10.252 4.2511 8.68191 4.5888 7.13308C4.79184 6.33261 5.83037 5.33744 6.65586 5.15358C8.54322 4.79462 10.4568 4.79462 12.3438 5.15358C13.1697 5.33744 14.2082 6.33261 14.4108 7.13308C14.7489 8.68195 14.7489 10.252 14.4108 11.8009Z" fill="white"/>
<path d="M11.2958 12.8483C11.1688 12.8098 11.0479 12.7839 10.9356 12.7373C9.77173 12.2544 8.70059 11.6314 7.85213 10.6765C7.36964 10.1335 6.992 9.5204 6.67277 8.87159C6.52139 8.56391 6.39381 8.24418 6.26378 7.92654C6.14521 7.63686 6.31985 7.3376 6.50375 7.11935C6.67631 6.91452 6.89836 6.75776 7.13884 6.64224C7.32653 6.55206 7.51168 6.60405 7.64876 6.76314C7.9451 7.10709 8.21731 7.46864 8.43773 7.86733C8.57327 8.11256 8.53608 8.41232 8.29043 8.57921C8.23073 8.61978 8.17632 8.66739 8.12071 8.71321C8.07193 8.75336 8.02603 8.79392 7.99259 8.84829C7.93147 8.94776 7.92855 9.06508 7.96791 9.17323C8.27084 10.0057 8.78143 10.6531 9.61934 11.0017C9.75342 11.0575 9.88809 11.1225 10.0426 11.1045C10.3012 11.0742 10.385 10.7905 10.5663 10.6422C10.7435 10.4973 10.9699 10.4954 11.1608 10.6162C11.3517 10.737 11.5367 10.8667 11.7207 10.9978C11.9012 11.1265 12.081 11.2523 12.2476 11.399C12.4077 11.54 12.4629 11.7251 12.3727 11.9165C12.2076 12.267 11.9674 12.5586 11.6208 12.7448C11.523 12.7973 11.4061 12.8143 11.2958 12.8483C11.1688 12.8097 11.4061 12.8143 11.2958 12.8483Z" fill="white"/>
<path d="M9.50322 6.24111C11.0256 6.28376 12.2759 7.29407 12.5439 8.79912C12.5896 9.05557 12.6058 9.31776 12.6261 9.57804C12.6347 9.68752 12.5727 9.79154 12.4545 9.79296C12.3325 9.79442 12.2776 9.69232 12.2697 9.58288C12.254 9.36625 12.2431 9.14866 12.2132 8.93383C12.0557 7.79978 11.1514 6.86156 10.0226 6.66023C9.85272 6.62993 9.67887 6.62196 9.50681 6.60391C9.39804 6.59249 9.25558 6.5859 9.23148 6.45069C9.21126 6.33734 9.30694 6.24707 9.41488 6.24128C9.44423 6.23965 9.47375 6.24099 9.50322 6.24111C11.0256 6.28376 9.47375 6.24099 9.50322 6.24111Z" fill="white"/>
<path d="M11.8167 9.24068C11.8142 9.25969 11.8129 9.30438 11.8018 9.34649C11.7614 9.49933 11.5296 9.51846 11.4763 9.36421C11.4605 9.31843 11.4581 9.26636 11.458 9.21708C11.4575 8.89464 11.3874 8.57253 11.2248 8.29199C11.0577 8.00365 10.8023 7.76126 10.5028 7.61459C10.3217 7.52591 10.1258 7.47079 9.92733 7.43794C9.84057 7.4236 9.75289 7.41489 9.66572 7.40275C9.56007 7.38808 9.50367 7.32075 9.50867 7.21664C9.51334 7.11909 9.58463 7.04892 9.69094 7.05492C10.0403 7.07477 10.3778 7.15027 10.6884 7.31474C11.32 7.64923 11.6808 8.17721 11.7861 8.88221C11.7908 8.91415 11.7985 8.94579 11.8009 8.97785C11.8069 9.05702 11.8106 9.13628 11.8167 9.24068C11.8142 9.25969 11.8106 9.13628 11.8167 9.24068Z" fill="white"/>
<path d="M10.8698 9.20356C10.7425 9.20585 10.6743 9.13535 10.6612 9.01858C10.652 8.93715 10.6448 8.85465 10.6254 8.77543C10.5871 8.61942 10.5042 8.47484 10.373 8.37924C10.311 8.33409 10.2408 8.30119 10.1673 8.27997C10.0738 8.253 9.97682 8.26042 9.8836 8.23757C9.78237 8.21277 9.72638 8.1308 9.74231 8.03583C9.75677 7.9494 9.84086 7.88195 9.93529 7.88878C10.5255 7.93139 10.9473 8.23653 11.0075 8.93136C11.0118 8.98039 11.0168 9.03221 11.0059 9.07911C10.9873 9.15941 10.9278 9.19964 10.8698 9.20356C10.7425 9.20585 10.9278 9.19964 10.8698 9.20356Z" fill="white"/>
</svg>
