<svg width="19" height="19" viewBox="0 0 19 19" fill="none" xmlns="http://www.w3.org/2000/svg">
<circle cx="9.5" cy="9.5" r="9.5" fill="#55CD6C"/>
<path d="M3.48895 15.5151L4.33079 12.5252C3.78944 11.6056 3.50441 10.5592 3.50441 9.48424C3.50441 6.17449 6.19709 3.48181 9.50685 3.48181C12.8166 3.48181 15.5092 6.17449 15.5092 9.48424C15.5092 12.794 12.8166 15.4867 9.50685 15.4867C8.47555 15.4867 7.46571 15.2227 6.57236 14.7214L3.48895 15.5151ZM6.73 13.6294L6.91373 13.7416C7.69262 14.2171 8.58933 14.4685 9.50685 14.4685C12.2552 14.4685 14.491 12.2325 14.491 9.48424C14.491 6.73594 12.2552 4.50002 9.50685 4.50002C6.75854 4.50002 4.52263 6.73594 4.52263 9.48424C4.52263 10.4419 4.79479 11.3718 5.30963 12.1735L5.43336 12.3662L4.94858 14.088L6.73 13.6294Z" fill="white"/>
<path d="M7.82071 6.69039L7.43122 6.66916C7.30889 6.66249 7.18889 6.70337 7.09642 6.78369C6.9076 6.94766 6.60568 7.26467 6.51295 7.67776C6.37466 8.2937 6.58837 9.04793 7.14149 9.80216C7.6946 10.5564 8.72537 11.7632 10.5481 12.2786C11.1354 12.4446 11.5975 12.3327 11.954 12.1046C12.2363 11.924 12.4309 11.6342 12.5011 11.3064L12.5633 11.016C12.583 10.9237 12.5361 10.83 12.4504 10.7905L11.1341 10.1837C11.0486 10.1444 10.9473 10.1692 10.8898 10.2437L10.3731 10.9136C10.334 10.9642 10.2672 10.9843 10.2069 10.9631C9.85298 10.8387 8.66756 10.3423 8.01711 9.08934C7.9889 9.035 7.99591 8.96904 8.03593 8.92269L8.5298 8.35136C8.58025 8.29302 8.593 8.211 8.56268 8.1401L7.99527 6.81262C7.96507 6.74195 7.89737 6.69458 7.82071 6.69039Z" fill="white"/>
</svg>
